<svg xmlns="http://www.w3.org/2000/svg" viewBox="113.5 127 205 190"><path d="M 193.996 193.489 C 193.996 193.41 194.153 193.41 194.153 193.489 L 201.702 216.344 L 186.446 216.344 Z M 247.219 226.886 C 246.352 225.954 245.091 225.489 243.594 225.489 L 229.439 225.489 L 229.439 189.883 C 229.439 186.702 227.835 184.763 224.762 184.763 C 221.689 184.763 219.797 186.702 219.797 189.883 L 219.797 228.981 C 219.797 232.394 221.689 234.412 224.998 234.412 L 243.595 234.412 C 246.669 234.412 248.323 232.239 248.402 230.145 C 248.402 228.905 248.008 227.741 247.22 226.887 Z M 211.103 234.889 C 213.618 234.889 215.523 233.018 215.523 230.6 C 215.523 230.212 215.447 229.198 214.99 228.028 L 201.424 190.055 C 200.205 186.39 197.537 184.285 194.26 184.285 C 190.526 184.285 188.087 187.247 187.096 190.055 L 173.073 228.105 C 172.921 228.496 172.616 229.275 172.616 230.288 C 172.616 232.862 174.673 234.888 177.341 234.888 C 179.781 234.888 181.229 233.797 181.99 231.381 L 184.124 224.675 L 204.244 224.675 L 206.377 231.458 C 207.14 233.798 208.664 234.888 211.102 234.888 Z M 164.564 229.515 L 164.641 229.515 L 164.641 193.942 L 174.895 193.942 C 178.134 193.942 179.291 191.545 179.291 189.456 C 179.291 187.292 177.748 184.971 174.895 184.971 L 144.593 184.971 C 141.741 184.971 140.198 187.291 140.198 189.456 C 140.198 191.545 141.355 193.942 144.593 193.942 L 154.848 193.942 L 154.848 229.515 C 154.848 232.687 156.699 234.62 159.705 234.62 C 162.713 234.62 164.563 232.687 164.563 229.515 Z M 289.222 230.907 C 289.458 228.877 288.201 227.315 286.787 225.362 L 272.569 206.933 L 284.509 194.907 C 284.98 194.437 285.373 193.969 285.766 193.579 C 287.415 191.782 288.201 190.846 288.201 189.519 C 288.201 186.63 285.844 185.067 283.409 184.989 C 281.524 184.989 280.267 186.004 279.48 186.786 L 261.963 204.982 L 261.963 189.128 C 261.963 186.239 259.998 184.287 257.013 184.287 C 254.186 184.287 252.064 186.317 252.064 189.128 L 252.064 230.128 C 252.064 233.017 254.028 234.89 257.013 234.89 C 259.841 234.89 261.963 232.86 261.963 230.128 L 261.963 216.773 L 265.576 213.181 L 278.695 230.908 C 280.58 233.485 281.68 234.655 283.487 234.812 L 284.273 234.812 C 285.294 234.812 288.829 234.5 289.222 230.908 Z M 216.038 127 C 272.643 127 318.576 163.401 318.499 208.262 C 318.499 253.123 272.565 289.525 215.96 289.525 C 209.696 289.525 203.51 289.058 197.555 288.205 L 156.029 316.379 C 155.488 316.766 154.792 316.999 154.173 316.999 C 153.4 316.999 152.627 316.689 152.086 316.146 C 151.312 315.369 151.004 314.205 151.389 313.119 L 161.056 276.872 C 132.444 262.513 113.498 237.133 113.498 208.261 C 113.498 163.4 159.431 126.999 216.036 126.999 Z" fill="#3c1e1e"/></svg>
